<svg width="12" height="12" viewBox="0 0 12 12" fill="none" xmlns="http://www.w3.org/2000/svg">
<path d="M8.83889 2.06658V1.03131C8.83889 0.941578 8.73576 0.892024 8.66612 0.946935L2.62862 5.66256C2.57732 5.70245 2.53581 5.75353 2.50726 5.81191C2.47871 5.87028 2.46387 5.93441 2.46387 5.99939C2.46387 6.06437 2.47871 6.1285 2.50726 6.18687C2.53581 6.24525 2.57732 6.29633 2.62862 6.33622L8.66612 11.0518C8.7371 11.1068 8.83889 11.0572 8.83889 10.9675V9.9322C8.83889 9.86658 8.80808 9.80363 8.75719 9.76345L3.93576 6.00006L8.75719 2.23533C8.80808 2.19515 8.83889 2.1322 8.83889 2.06658Z" fill="black"/>
<path d="M8.33887 1.92688L3.62793 5.60559L3.12305 6.00012L3.62793 6.39465L8.33887 10.0704V10.1613L3.00879 5.99915L8.33887 1.83606V1.92688Z" stroke="black" stroke-opacity="0.25"/>
</svg>
