<svg width="14" height="14" viewBox="0 0 14 14" fill="none" xmlns="http://www.w3.org/2000/svg">
<g clip-path="url(#clip0_262_8493)">
<path fill-rule="evenodd" clip-rule="evenodd" d="M12.75 13.25H1.25C0.973438 13.25 0.75 13.0266 0.75 12.75V1.25C0.75 0.973438 0.973438 0.75 1.25 0.75H6.875C6.94375 0.75 7 0.80625 7 0.875V1.75C7 1.81875 6.94375 1.875 6.875 1.875H1.875V12.125H12.125V7.125C12.125 7.05625 12.1813 7 12.25 7H13.125C13.1938 7 13.25 7.05625 13.25 7.125V12.75C13.25 13.0266 13.0266 13.25 12.75 13.25ZM9.20781 5.63438L10.0234 6.45C10.04 6.4666 10.0515 6.48751 10.0567 6.51035C10.0619 6.53318 10.0607 6.55702 10.053 6.57916C10.0454 6.6013 10.0317 6.62085 10.0134 6.63558C9.99523 6.65031 9.97325 6.65964 9.95 6.6625L7.14688 6.99063C7.06719 7 6.99844 6.93281 7.00781 6.85156L7.33594 4.04844C7.34844 3.94531 7.475 3.90156 7.54844 3.975L8.36719 4.79375L12.3703 0.790625C12.4188 0.742187 12.4984 0.742187 12.5469 0.790625L13.2094 1.45313C13.2578 1.50156 13.2578 1.58125 13.2094 1.62969L9.20781 5.63438Z" fill="black"/>
<path d="M6.5 1.25V1.375H1.375V12.625H12.625V7.5H12.75V12.75H1.25V1.25H6.5ZM12.5898 1.54102L8.85449 5.28125L8.50098 5.63477L9.12207 6.25586L7.55957 6.43848L7.74219 4.87598L8.36719 5.50098L8.7207 5.14746L12.458 1.40918L12.5898 1.54102Z" stroke="black" stroke-opacity="0.88"/>
</g>
<defs>
<clipPath id="clip0_262_8493">
<rect width="14" height="14" fill="white"/>
</clipPath>
</defs>
</svg>
