<svg width="14" height="14" viewBox="0 0 14 14" fill="none" xmlns="http://www.w3.org/2000/svg">
<path d="M12.4141 10.9313C12.1194 10.2331 11.6916 9.59891 11.1547 9.06406C10.6195 8.52767 9.9854 8.10001 9.28754 7.80469C9.28129 7.80156 9.27504 7.8 9.26879 7.79688C10.2422 7.09375 10.875 5.94844 10.875 4.65625C10.875 2.51563 9.14067 0.78125 7.00004 0.78125C4.85941 0.78125 3.12504 2.51563 3.12504 4.65625C3.12504 5.94844 3.75785 7.09375 4.73129 7.79844C4.72504 7.80156 4.71879 7.80313 4.71254 7.80625C4.01254 8.10156 3.38441 8.525 2.84535 9.06563C2.30896 9.60089 1.8813 10.235 1.58598 10.9328C1.29585 11.616 1.13939 12.3485 1.12504 13.0906C1.12462 13.1073 1.12755 13.1239 1.13364 13.1394C1.13974 13.155 1.14888 13.1691 1.16053 13.181C1.17218 13.193 1.1861 13.2025 1.20147 13.2089C1.21684 13.2154 1.23336 13.2188 1.25004 13.2188H2.18754C2.25629 13.2188 2.31098 13.1641 2.31254 13.0969C2.34379 11.8906 2.82816 10.7609 3.68441 9.90469C4.57035 9.01875 5.74691 8.53125 7.00004 8.53125C8.25316 8.53125 9.42973 9.01875 10.3157 9.90469C11.1719 10.7609 11.6563 11.8906 11.6875 13.0969C11.6891 13.1656 11.7438 13.2188 11.8125 13.2188H12.75C12.7667 13.2188 12.7832 13.2154 12.7986 13.2089C12.814 13.2025 12.8279 13.193 12.8396 13.181C12.8512 13.1691 12.8603 13.155 12.8664 13.1394C12.8725 13.1239 12.8755 13.1073 12.875 13.0906C12.8594 12.3438 12.7047 11.6172 12.4141 10.9313ZM7.00004 7.34375C6.28285 7.34375 5.60785 7.06406 5.10004 6.55625C4.59223 6.04844 4.31254 5.37344 4.31254 4.65625C4.31254 3.93906 4.59223 3.26406 5.10004 2.75625C5.60785 2.24844 6.28285 1.96875 7.00004 1.96875C7.71723 1.96875 8.39223 2.24844 8.90004 2.75625C9.40785 3.26406 9.68754 3.93906 9.68754 4.65625C9.68754 5.37344 9.40785 6.04844 8.90004 6.55625C8.39223 7.06406 7.71723 7.34375 7.00004 7.34375Z" fill="black"/>
<path d="M7 1.28125C8.86448 1.28125 10.375 2.79177 10.375 4.65625C10.375 5.78137 9.82427 6.77859 8.97559 7.3916L8.30664 7.875L9.04492 8.24414C9.06121 8.25229 9.07526 8.25875 9.08496 8.2627C9.08652 8.26333 9.08846 8.26312 9.08984 8.26367L9.09277 8.26562C9.65142 8.50207 10.1655 8.8309 10.6133 9.23828L10.8008 9.41699L10.8018 9.41797C11.2312 9.84582 11.5846 10.3434 11.8467 10.8887L11.9531 11.126H11.9541C12.17 11.6355 12.3023 12.1697 12.3525 12.7188H12.1641C12.0496 11.5224 11.5288 10.4107 10.6689 9.55078C9.6893 8.57129 8.38561 8.03125 7 8.03125C5.70083 8.03126 4.4741 8.50643 3.51855 9.37305L3.33105 9.55078C2.47115 10.4107 1.95038 11.5224 1.83594 12.7188H1.64746C1.68985 12.2561 1.79109 11.8005 1.95215 11.3643L2.0459 11.1279H2.04688C2.28329 10.5693 2.61218 10.0552 3.01953 9.60742L3.19824 9.41992L3.19922 9.41895C3.69225 8.92448 4.26582 8.53759 4.90527 8.26758C4.90786 8.26658 4.91136 8.26517 4.91504 8.26367C4.92473 8.25973 4.93886 8.2542 4.95508 8.24609L5.69238 7.87695L5.02441 7.39355C4.17526 6.77884 3.625 5.78128 3.625 4.65625C3.625 2.79178 5.13554 1.28127 7 1.28125ZM7 1.46875C6.20316 1.46876 5.44817 1.7608 4.86133 2.29297L4.74609 2.40234C4.14462 3.00382 3.8125 3.80632 3.8125 4.65625C3.8125 5.45308 4.10457 6.20807 4.63672 6.79492L4.74609 6.91016C5.34757 7.51163 6.15008 7.84374 7 7.84375C7.79683 7.84375 8.55182 7.55168 9.13867 7.01953L9.25391 6.91016C9.85539 6.30868 10.1875 5.50619 10.1875 4.65625C10.1875 3.8594 9.89546 3.10443 9.36328 2.51758L9.25391 2.40234C8.65243 1.80087 7.84993 1.46875 7 1.46875ZM9.46191 7.33594L9.46387 7.33691C9.46205 7.3362 9.4603 7.33547 9.45898 7.33496L9.46191 7.33594Z" stroke="black" stroke-opacity="0.88"/>
</svg>
