<svg width="14" height="14" viewBox="0 0 14 14" fill="none" xmlns="http://www.w3.org/2000/svg">
<g clip-path="url(#clip0_262_8458)">
<path d="M12 0H2C1.72344 0 1.5 0.223438 1.5 0.5V13.5C1.5 13.7766 1.72344 14 2 14H12C12.2766 14 12.5 13.7766 12.5 13.5V0.5C12.5 0.223438 12.2766 0 12 0ZM7.9375 1.125H9.4375V4.40469L8.71094 3.875L7.9375 4.42813V1.125ZM11.375 12.875H2.625V1.125H7V5.76406C7 5.81563 7.01563 5.86719 7.04688 5.90938C7.06585 5.93619 7.08994 5.95898 7.11778 5.97642C7.14561 5.99386 7.17663 6.00561 7.20903 6.01099C7.24143 6.01636 7.27458 6.01526 7.30656 6.00774C7.33853 6.00023 7.3687 5.98644 7.39531 5.96719L8.70469 5.03125L9.97656 5.95938C10.0188 5.99063 10.0703 6.00781 10.1234 6.00781C10.2609 6.00781 10.3734 5.89531 10.3734 5.75781V1.125H11.3734V12.875H11.375Z" fill="black"/>
<path d="M12 0.5V13.5H2V0.5H12ZM2.125 13.375H11.375V12.875H11.873V0.625H2.125V13.375ZM7.25098 5.76465H7.25L7.45312 5.62109L7.25098 5.76465Z" stroke="black" stroke-opacity="0.88"/>
</g>
<defs>
<clipPath id="clip0_262_8458">
<rect width="14" height="14" fill="white"/>
</clipPath>
</defs>
</svg>
