<svg width="14" height="14" viewBox="0 0 14 14" fill="none" xmlns="http://www.w3.org/2000/svg">
<path d="M6.90156 9.32813C6.91326 9.34307 6.9282 9.35515 6.94525 9.36346C6.96231 9.37177 6.98103 9.37609 7 9.37609C7.01897 9.37609 7.03769 9.37177 7.05475 9.36346C7.07181 9.35515 7.08675 9.34307 7.09844 9.32813L8.84844 7.11406C8.9125 7.03281 8.85469 6.9125 8.75 6.9125H7.59219V1.625C7.59219 1.55625 7.53594 1.5 7.46719 1.5H6.52969C6.46094 1.5 6.40469 1.55625 6.40469 1.625V6.91094H5.25C5.14531 6.91094 5.0875 7.03125 5.15156 7.1125L6.90156 9.32813ZM12.7188 8.78125H11.7813C11.7125 8.78125 11.6563 8.8375 11.6563 8.90625V11.3125H2.34375V8.90625C2.34375 8.8375 2.2875 8.78125 2.21875 8.78125H1.28125C1.2125 8.78125 1.15625 8.8375 1.15625 8.90625V12C1.15625 12.2766 1.37969 12.5 1.65625 12.5H12.3438C12.6203 12.5 12.8438 12.2766 12.8438 12V8.90625C12.8438 8.8375 12.7875 8.78125 12.7188 8.78125Z" fill="black"/>
<path d="M1.84375 9.28125V11.8125H12.1562V9.28125H12.3438V12H1.65625V9.28125H1.84375ZM7.0918 2V7.41211H7.97559L7 8.64551L6.02441 7.41113H6.9043V2H7.0918Z" stroke="black" stroke-opacity="0.88"/>
</svg>
