<svg width="12" height="12" viewBox="0 0 12 12" fill="none" xmlns="http://www.w3.org/2000/svg">
<path d="M9.39777 5.66245L3.36027 0.946823C3.34449 0.934402 3.32553 0.926684 3.30557 0.924553C3.2856 0.922422 3.26544 0.925966 3.2474 0.934777C3.22936 0.943588 3.21417 0.95731 3.20357 0.974365C3.19298 0.991421 3.18741 1.01112 3.1875 1.0312V2.06647C3.1875 2.13209 3.2183 2.19504 3.2692 2.23522L8.09063 5.99995L3.2692 9.76468C3.21697 9.80486 3.1875 9.86781 3.1875 9.93343V10.9687C3.1875 11.0584 3.29063 11.108 3.36027 11.0531L9.39777 6.33745C9.44908 6.29742 9.4906 6.24622 9.51915 6.18773C9.5477 6.12925 9.56254 6.06503 9.56254 5.99995C9.56254 5.93487 9.5477 5.87064 9.51915 5.81216C9.4906 5.75368 9.44908 5.70248 9.39777 5.66245Z" fill="black"/>
<path d="M9.0166 6.00012L3.6875 10.1632V10.0714L8.39844 6.39368L8.90332 6.00012L8.39844 5.60559L3.6875 1.92688V1.83606L9.0166 6.00012Z" stroke="black" stroke-opacity="0.25"/>
</svg>
