<svg width="14" height="14" viewBox="0 0 14 14" fill="none" xmlns="http://www.w3.org/2000/svg">
<g clip-path="url(#clip0_262_8434)">
<path d="M6.25009 7C6.25009 7.19891 6.32911 7.38968 6.46976 7.53033C6.61041 7.67098 6.80118 7.75 7.00009 7.75C7.199 7.75 7.38977 7.67098 7.53042 7.53033C7.67107 7.38968 7.75009 7.19891 7.75009 7C7.75009 6.80109 7.67107 6.61032 7.53042 6.46967C7.38977 6.32902 7.199 6.25 7.00009 6.25C6.80118 6.25 6.61041 6.32902 6.46976 6.46967C6.32911 6.61032 6.25009 6.80109 6.25009 7ZM9.37509 7C9.37509 7.19891 9.45411 7.38968 9.59476 7.53033C9.73541 7.67098 9.92618 7.75 10.1251 7.75C10.324 7.75 10.5148 7.67098 10.6554 7.53033C10.7961 7.38968 10.8751 7.19891 10.8751 7C10.8751 6.80109 10.7961 6.61032 10.6554 6.46967C10.5148 6.32902 10.324 6.25 10.1251 6.25C9.92618 6.25 9.73541 6.32902 9.59476 6.46967C9.45411 6.61032 9.37509 6.80109 9.37509 7ZM3.12509 7C3.12509 7.19891 3.20411 7.38968 3.34476 7.53033C3.48541 7.67098 3.67618 7.75 3.87509 7.75C4.074 7.75 4.26477 7.67098 4.40542 7.53033C4.54607 7.38968 4.62509 7.19891 4.62509 7C4.62509 6.80109 4.54607 6.61032 4.40542 6.46967C4.26477 6.32902 4.074 6.25 3.87509 6.25C3.67618 6.25 3.48541 6.32902 3.34476 6.46967C3.20411 6.61032 3.12509 6.80109 3.12509 7ZM13.4563 4.2875C13.1032 3.44844 12.597 2.69531 11.9517 2.04844C11.3109 1.40531 10.5501 0.894097 9.71259 0.54375C8.85321 0.182813 7.94071 0 7.00009 0H6.96884C6.02196 0.0046875 5.10478 0.192188 4.24228 0.560938C3.4119 0.914877 2.65831 1.427 2.02353 2.06875C1.38446 2.71406 0.882901 3.46406 0.536026 4.3C0.176651 5.16563 -0.00459886 6.08594 8.86448e-05 7.03281C0.0053906 8.11792 0.262107 9.18704 0.750089 10.1563V12.5313C0.750089 12.7219 0.825814 12.9047 0.960606 13.0395C1.0954 13.1743 1.27821 13.25 1.46884 13.25H3.8454C4.81461 13.738 5.88373 13.9947 6.96884 14H7.00165C7.93759 14 8.8454 13.8188 9.70009 13.4641C10.5334 13.1179 11.2913 12.6126 11.9313 11.9766C12.5767 11.3375 13.0845 10.5906 13.4392 9.75781C13.8079 8.89531 13.9954 7.97813 14.0001 7.03125C14.0048 6.07969 13.8204 5.15625 13.4563 4.2875ZM11.0954 11.1313C10.0001 12.2156 8.54696 12.8125 7.00009 12.8125H6.97353C6.03134 12.8078 5.0954 12.5734 4.26884 12.1328L4.13759 12.0625H1.93759V9.8625L1.86728 9.73125C1.42665 8.90469 1.19228 7.96875 1.18759 7.02656C1.18134 5.46875 1.77665 4.00625 2.86884 2.90469C3.95946 1.80313 5.41728 1.19375 6.97509 1.1875H7.00165C7.7829 1.1875 8.54071 1.33906 9.25478 1.63906C9.95165 1.93125 10.5767 2.35156 11.1142 2.88906C11.6501 3.425 12.072 4.05156 12.3642 4.74844C12.6673 5.47031 12.8188 6.23594 12.8157 7.02656C12.8063 8.58281 12.1954 10.0406 11.0954 11.1313Z" fill="black"/>
<path d="M6.97266 0.6875C5.38864 0.693959 3.89658 1.27636 2.74023 2.33496L2.51367 2.55273C1.40165 3.67435 0.764183 5.14197 0.694336 6.71289L0.6875 7.02832V7.0293C0.691985 7.92382 0.88711 8.81339 1.25684 9.62402L1.42578 9.9668L1.42676 9.96777L1.4375 9.9873V12.5625H4.0127L4.0332 12.5732V12.5742C4.81979 12.9935 5.69629 13.2402 6.58789 13.2988L6.9707 13.3125H7C8.5733 13.3125 10.0601 12.7425 11.2197 11.7012L11.4473 11.4863C12.5671 10.3761 13.221 8.91392 13.3066 7.34473L13.3154 7.0293V7.02832C13.3184 6.27871 13.1934 5.54794 12.9414 4.85156L12.8252 4.55469C12.5473 3.89207 12.1614 3.28799 11.6797 2.75781L11.4678 2.53516C10.9577 2.02508 10.3736 1.6118 9.72852 1.30371L9.44824 1.17773C8.67231 0.851787 7.8487 0.687539 7.00195 0.6875H6.97266ZM3.875 6.75C3.92469 6.75 3.97292 6.76484 4.01367 6.79199L4.05176 6.82324C4.09864 6.87013 4.125 6.9337 4.125 7C4.125 7.0663 4.09864 7.12987 4.05176 7.17676C4.00488 7.22361 3.94128 7.25 3.875 7.25C3.82529 7.24998 3.77708 7.23519 3.73633 7.20801L3.69824 7.17676C3.65139 7.12988 3.625 7.06628 3.625 7C3.625 6.9503 3.63983 6.90209 3.66699 6.86133L3.69824 6.82324C3.7451 6.77638 3.80873 6.75002 3.875 6.75ZM7 6.75C7.04969 6.75 7.09792 6.76484 7.13867 6.79199L7.17676 6.82324C7.22364 6.87013 7.25 6.9337 7.25 7C7.25 7.0663 7.22364 7.12987 7.17676 7.17676C7.12988 7.22361 7.06628 7.25 7 7.25C6.95029 7.24998 6.90208 7.23519 6.86133 7.20801L6.82324 7.17676C6.77639 7.12988 6.75 7.06628 6.75 7C6.75 6.9503 6.76483 6.90209 6.79199 6.86133L6.82324 6.82324C6.8701 6.77638 6.93373 6.75002 7 6.75ZM10.125 6.75C10.1747 6.75 10.2229 6.76484 10.2637 6.79199L10.3018 6.82324C10.3486 6.87013 10.375 6.9337 10.375 7C10.375 7.04973 10.3602 7.0979 10.333 7.13867L10.3018 7.17676C10.2549 7.22361 10.1913 7.25 10.125 7.25C10.0753 7.24998 10.0271 7.2352 9.98633 7.20801L9.94824 7.17676C9.90139 7.12988 9.875 7.06628 9.875 7C9.875 6.9503 9.88983 6.90209 9.91699 6.86133L9.94824 6.82324C9.99511 6.77638 10.0587 6.75002 10.125 6.75ZM1.25 10.0371L1.19629 9.93164C0.799672 9.1439 0.567801 8.28486 0.512695 7.40723L0.5 7.03027C0.496194 6.25992 0.625194 5.50985 0.880859 4.7959L0.998047 4.49219V4.49121C1.27949 3.81311 1.6708 3.19597 2.16211 2.65039L2.37891 2.4209V2.41992C2.89427 1.89894 3.49436 1.4705 4.15234 1.15137L4.43848 1.02051C5.13854 0.721205 5.87813 0.550698 6.64258 0.509766L6.97168 0.5H7C7.76548 0.5 8.50953 0.629831 9.21777 0.886719L9.51855 1.00488H9.51953C10.1996 1.28936 10.825 1.68851 11.3691 2.18359L11.5977 2.40137C12.1227 2.92773 12.5483 3.52906 12.8662 4.19336L12.9951 4.48145C13.2908 5.18716 13.4587 5.93106 13.4932 6.69824L13.5 7.02832C13.4962 7.79956 13.3621 8.54794 13.0996 9.25879L12.9795 9.56152C12.6914 10.238 12.2943 10.8535 11.7979 11.3945L11.5791 11.6211V11.6221C11.0594 12.1386 10.4557 12.562 9.79492 12.875L9.50781 13.002C8.71432 13.3312 7.8721 13.5 7.00195 13.5H6.97168C5.9639 13.4951 4.97046 13.2569 4.07031 12.8037L3.96387 12.75H1.46875C1.42525 12.75 1.38332 12.7367 1.34766 12.7129L1.31445 12.6855C1.27346 12.6445 1.25 12.5892 1.25 12.5312V10.0371Z" stroke="black" stroke-opacity="0.88"/>
</g>
<defs>
<clipPath id="clip0_262_8434">
<rect width="14" height="14" fill="white"/>
</clipPath>
</defs>
</svg>
