<svg width="14" height="14" viewBox="0 0 14 14" fill="none" xmlns="http://www.w3.org/2000/svg">
<g clip-path="url(#clip0_262_8422)">
<path d="M12.7047 2.72969L11.0406 1.06719C10.8375 0.864063 10.5656 0.75 10.2781 0.75C9.99063 0.75 9.71875 0.8625 9.51563 1.06719L7.72344 2.85625C7.52031 3.05938 7.40625 3.33281 7.40625 3.62031C7.40625 3.90938 7.51875 4.17969 7.72344 4.38438L9.12344 5.78594C8.80451 6.52904 8.34626 7.20421 7.77344 7.775C7.2 8.35156 6.52969 8.80625 5.78594 9.12813L4.38594 7.72656C4.18281 7.52344 3.91094 7.40938 3.62344 7.40938C3.48163 7.40885 3.34114 7.43664 3.21021 7.4911C3.07928 7.54557 2.96054 7.62562 2.86094 7.72656L1.06719 9.51563C0.864063 9.71875 0.75 9.99219 0.75 10.2797C0.75 10.5688 0.8625 10.8391 1.06719 11.0438L2.72969 12.7063C3.07656 13.0531 3.55469 13.2516 4.04531 13.2516C4.14688 13.2516 4.24531 13.2438 4.34531 13.2266C6.41406 12.8859 8.46719 11.7844 10.125 10.1281C11.7813 8.46875 12.8813 6.41563 13.225 4.34531C13.3234 3.75781 13.1266 3.15313 12.7047 2.72969ZM12.1172 4.15938C11.8125 6.00156 10.8219 7.83906 9.32969 9.33125C7.8375 10.8234 6.00156 11.8141 4.15938 12.1188C3.92813 12.1578 3.69063 12.0797 3.52188 11.9125L1.88906 10.2797L3.62031 8.54688L5.49219 10.4219L5.50625 10.4359L5.84375 10.3109C6.86708 9.9347 7.79635 9.34044 8.56717 8.56935C9.338 7.79825 9.93193 6.86877 10.3078 5.84531L10.4328 5.50781L8.54531 3.62188L10.2766 1.88906L11.9094 3.52188C12.0781 3.69063 12.1563 3.92813 12.1172 4.15938Z" fill="black"/>
<path d="M10.3516 1.25684C10.4396 1.26814 10.5235 1.29789 10.5977 1.34766L10.6875 1.4209L12.3506 3.08203V3.08301C12.6216 3.35522 12.7652 3.72836 12.749 4.10254L12.7314 4.2627V4.26367C12.427 6.09704 11.4906 7.9353 10.0635 9.47168L9.77148 9.77441C8.27782 11.2666 6.46088 12.2784 4.62988 12.6641L4.26367 12.7334H4.26074C4.19062 12.7455 4.1201 12.752 4.04492 12.752C3.73198 12.7519 3.42429 12.6399 3.18262 12.4424L3.08301 12.3525L1.4209 10.6904C1.32786 10.5974 1.27302 10.4816 1.25684 10.3555L1.53516 10.6328L3.16992 12.2676C3.4485 12.5436 3.84543 12.6772 4.24023 12.6113L4.24121 12.6123C6.19967 12.2883 8.12778 11.2404 9.68359 9.68457C11.2391 8.12898 12.2862 6.20006 12.6104 4.24219C12.6687 3.89602 12.5733 3.54723 12.3613 3.27832L12.2627 3.16797L10.3516 1.25684ZM3.2666 8.19336L1.53516 9.92676L1.25684 10.2041C1.27332 10.0788 1.32868 9.96174 1.41992 9.87012L3.21387 8.08105L3.2168 8.07812C3.24332 8.05124 3.27253 8.02685 3.30371 8.00586L3.40234 7.95312C3.44715 7.93449 3.49414 7.92265 3.54199 7.91602L3.2666 8.19336ZM8.19238 3.97559L9.85254 5.63477L9.83887 5.67188V5.67285C9.53181 6.50892 9.06865 7.27804 8.47559 7.93945L8.21387 8.21582C7.58431 8.8456 6.84114 9.34888 6.02539 9.7002L5.6709 9.8418H5.66992L5.63281 9.85449L3.97461 8.19336L3.69727 7.91602C3.78529 7.92737 3.86926 7.95707 3.94336 8.00684L4.03223 8.08008L5.43262 9.48145L5.67285 9.72168L5.98438 9.58691C6.78569 9.24013 7.50931 8.74987 8.12793 8.12793L8.12695 8.12695C8.74428 7.51146 9.23917 6.78447 9.58301 5.9834L9.7168 5.67188L9.47754 5.43262L8.07715 4.03125L8.00293 3.94141C7.95359 3.868 7.92453 3.7851 7.91309 3.69727L8.19238 3.97559ZM9.92285 1.53613L8.19141 3.26855L7.91309 3.5459C7.92454 3.45746 7.95427 3.373 8.00391 3.29883L8.07715 3.20996L9.86914 1.4209L9.87012 1.41895C9.96036 1.32802 10.0754 1.2735 10.2002 1.25684L9.92285 1.53613Z" stroke="black" stroke-opacity="0.88"/>
</g>
<defs>
<clipPath id="clip0_262_8422">
<rect width="14" height="14" fill="white"/>
</clipPath>
</defs>
</svg>
