<svg width="14" height="14" viewBox="0 0 14 14" fill="none" xmlns="http://www.w3.org/2000/svg">
<path d="M1.75 6.98438C1.75 7.09928 1.77263 7.21306 1.81661 7.31922C1.86058 7.42538 1.92503 7.52184 2.00628 7.60309C2.08753 7.68434 2.18399 7.7488 2.29015 7.79277C2.39631 7.83674 2.51009 7.85938 2.625 7.85938C2.73991 7.85938 2.85369 7.83674 2.95985 7.79277C3.06601 7.7488 3.16247 7.68434 3.24372 7.60309C3.32497 7.52184 3.38942 7.42538 3.43339 7.31922C3.47737 7.21306 3.5 7.09928 3.5 6.98438C3.5 6.86947 3.47737 6.75569 3.43339 6.64953C3.38942 6.54337 3.32497 6.44691 3.24372 6.36566C3.16247 6.28441 3.06601 6.21995 2.95985 6.17598C2.85369 6.13201 2.73991 6.10938 2.625 6.10938C2.51009 6.10938 2.39631 6.13201 2.29015 6.17598C2.18399 6.21995 2.08753 6.28441 2.00628 6.36566C1.92503 6.44691 1.86058 6.54337 1.81661 6.64953C1.77263 6.75569 1.75 6.86947 1.75 6.98438ZM6.125 6.98438C6.125 7.21644 6.21719 7.439 6.38128 7.60309C6.54538 7.76719 6.76794 7.85938 7 7.85938C7.23207 7.85938 7.45462 7.76719 7.61872 7.60309C7.78281 7.439 7.875 7.21644 7.875 6.98438C7.875 6.75231 7.78281 6.52975 7.61872 6.36566C7.45462 6.20156 7.23207 6.10938 7 6.10938C6.76794 6.10938 6.54538 6.20156 6.38128 6.36566C6.21719 6.52975 6.125 6.75231 6.125 6.98438ZM10.5 6.98438C10.5 7.21644 10.5922 7.439 10.7563 7.60309C10.9204 7.76719 11.1429 7.85938 11.375 7.85938C11.6071 7.85938 11.8296 7.76719 11.9937 7.60309C12.1578 7.439 12.25 7.21644 12.25 6.98438C12.25 6.75231 12.1578 6.52975 11.9937 6.36566C11.8296 6.20156 11.6071 6.10938 11.375 6.10938C11.1429 6.10938 10.9204 6.20156 10.7563 6.36566C10.5922 6.52975 10.5 6.75231 10.5 6.98438Z" fill="black"/>
<path d="M2.625 6.60938C2.64963 6.60938 2.67421 6.61143 2.69824 6.61621L2.76855 6.6377C2.79127 6.6471 2.81266 6.65927 2.83301 6.67285L2.89062 6.71875C2.90806 6.73619 2.92289 6.75595 2.93652 6.77637L2.97168 6.84082C2.99052 6.88631 3 6.93514 3 6.98438C3 7.03361 2.99051 7.08244 2.97168 7.12793C2.96227 7.15064 2.95011 7.17204 2.93652 7.19238L2.89062 7.25C2.87319 7.26744 2.85342 7.28227 2.83301 7.2959L2.76855 7.33105C2.72307 7.34989 2.67423 7.35938 2.625 7.35938C2.60037 7.35937 2.57579 7.35732 2.55176 7.35254L2.48145 7.33105C2.45873 7.32165 2.43734 7.30948 2.41699 7.2959L2.35938 7.25C2.34194 7.23256 2.32711 7.2128 2.31348 7.19238L2.27832 7.12793C2.25949 7.08244 2.25 7.03361 2.25 6.98438L2.25684 6.91113L2.27832 6.84082C2.28773 6.81811 2.29989 6.79671 2.31348 6.77637L2.35938 6.71875C2.37681 6.70131 2.39658 6.68648 2.41699 6.67285L2.48145 6.6377C2.52693 6.61886 2.57577 6.60938 2.625 6.60938ZM7 6.60938C7.07467 6.60938 7.14681 6.63199 7.20801 6.67285L7.26562 6.71875C7.33595 6.78908 7.375 6.88492 7.375 6.98438C7.375 7.05904 7.35238 7.13119 7.31152 7.19238L7.26562 7.25C7.1953 7.32033 7.09946 7.35938 7 7.35938C6.92533 7.35937 6.85319 7.33676 6.79199 7.2959L6.73438 7.25C6.66405 7.17967 6.625 7.08383 6.625 6.98438C6.625 6.90971 6.64762 6.83756 6.68848 6.77637L6.73438 6.71875C6.7872 6.66592 6.85455 6.63058 6.92676 6.61621L7 6.60938ZM11.375 6.60938C11.4497 6.60938 11.5218 6.63199 11.583 6.67285L11.6406 6.71875C11.711 6.78908 11.75 6.88492 11.75 6.98438C11.75 7.05904 11.7274 7.13119 11.6865 7.19238L11.6406 7.25C11.5703 7.32033 11.4745 7.35938 11.375 7.35938C11.3003 7.35937 11.2282 7.33676 11.167 7.2959L11.1094 7.25C11.039 7.17967 11 7.08383 11 6.98438C11 6.90971 11.0226 6.83756 11.0635 6.77637L11.1094 6.71875C11.1622 6.66592 11.2296 6.63058 11.3018 6.61621L11.375 6.60938Z" stroke="black" stroke-opacity="0.25"/>
</svg>
