<svg width="14" height="14" viewBox="0 0 14 14" fill="none" xmlns="http://www.w3.org/2000/svg">
<g clip-path="url(#clip0_262_8464)">
<path d="M12.1563 6.09375C12.1563 6.025 12.1 5.96875 12.0313 5.96875H11.0938C11.025 5.96875 10.9688 6.025 10.9688 6.09375C10.9688 8.28594 9.19219 10.0625 7 10.0625C4.80781 10.0625 3.03125 8.28594 3.03125 6.09375C3.03125 6.025 2.975 5.96875 2.90625 5.96875H1.96875C1.9 5.96875 1.84375 6.025 1.84375 6.09375C1.84375 8.72969 3.82188 10.9047 6.375 11.2125V12.8125H4.10469C3.89063 12.8125 3.71875 13.0359 3.71875 13.3125V13.875C3.71875 13.9438 3.7625 14 3.81563 14H10.1844C10.2375 14 10.2813 13.9438 10.2813 13.875V13.3125C10.2813 13.0359 10.1094 12.8125 9.89531 12.8125H7.5625V11.2203C10.1453 10.9391 12.1563 8.75156 12.1563 6.09375ZM7 8.75C8.46719 8.75 9.65625 7.575 9.65625 6.125V2.625C9.65625 1.175 8.46719 0 7 0C5.53281 0 4.34375 1.175 4.34375 2.625V6.125C4.34375 7.575 5.53281 8.75 7 8.75ZM5.53125 2.625C5.53125 1.83438 6.18594 1.1875 7 1.1875C7.81406 1.1875 8.46875 1.83438 8.46875 2.625V6.125C8.46875 6.91563 7.81406 7.5625 7 7.5625C6.18594 7.5625 5.53125 6.91563 5.53125 6.125V2.625Z" fill="black"/>
<path d="M7 0.5C8.19665 0.5 9.15625 1.45671 9.15625 2.625V6.125C9.15625 7.29329 8.19665 8.25 7 8.25C5.80335 8.25 4.84375 7.29329 4.84375 6.125V2.625C4.84375 1.45671 5.80335 0.5 7 0.5ZM7 0.6875C5.91859 0.6875 5.03125 1.54952 5.03125 2.625V6.125C5.03125 7.20048 5.91859 8.0625 7 8.0625C8.08141 8.0625 8.96875 7.20048 8.96875 6.125V2.625C8.96875 1.54952 8.08141 0.6875 7 0.6875ZM6.875 10.7695L6.43457 10.7158C4.25217 10.4526 2.53545 8.67732 2.35938 6.46875H2.54785C2.73832 8.76151 4.65799 10.5625 7 10.5625C9.34201 10.5625 11.2617 8.76151 11.4521 6.46875H11.6406C11.463 8.69638 9.71799 10.4829 7.50879 10.7236L7.0625 10.7715V13.3125H9.78125V13.5H4.21875V13.3125H6.875V10.7695Z" stroke="black" stroke-opacity="0.88"/>
</g>
<defs>
<clipPath id="clip0_262_8464">
<rect width="14" height="14" fill="white"/>
</clipPath>
</defs>
</svg>
