<svg width="14" height="14" viewBox="0 0 14 14" fill="none" xmlns="http://www.w3.org/2000/svg">
<g clip-path="url(#clip0_262_8446)">
<path d="M12.9379 11.0624H11.6879V9.81238C11.6879 9.74363 11.6317 9.68738 11.5629 9.68738H10.8129C10.7442 9.68738 10.6879 9.74363 10.6879 9.81238V11.0624H9.43793C9.36918 11.0624 9.31293 11.1186 9.31293 11.1874V11.9374C9.31293 12.0061 9.36918 12.0624 9.43793 12.0624H10.6879V13.3124C10.6879 13.3811 10.7442 13.4374 10.8129 13.4374H11.5629C11.6317 13.4374 11.6879 13.3811 11.6879 13.3124V12.0624H12.9379C13.0067 12.0624 13.0629 12.0061 13.0629 11.9374V11.1874C13.0629 11.1186 13.0067 11.0624 12.9379 11.0624ZM4.83637 6.78738C4.82231 6.65144 4.81449 6.51394 4.81449 6.37488C4.81449 6.12644 4.83793 5.88425 4.88168 5.64832C4.89262 5.59207 4.86293 5.53425 4.81137 5.51082C4.59887 5.4155 4.40356 5.28425 4.23481 5.11863C4.03596 4.92583 3.87949 4.69369 3.77538 4.43704C3.67126 4.18039 3.62179 3.90485 3.63012 3.628C3.64418 3.12644 3.84574 2.64988 4.19731 2.2905C4.58324 1.89519 5.10199 1.67957 5.65355 1.68582C6.15199 1.6905 6.63324 1.88269 6.99731 2.22332C7.12074 2.33894 7.22699 2.46707 7.31606 2.60457C7.34731 2.653 7.40824 2.67332 7.46137 2.65457C7.73637 2.55925 8.02699 2.49207 8.32543 2.46082C8.41293 2.45144 8.46293 2.35769 8.42387 2.27957C7.91606 1.27488 6.87856 0.581128 5.67856 0.562378C3.9473 0.535816 2.50355 1.95613 2.50355 3.68738C2.50355 4.66863 2.95512 5.54363 3.66293 6.11707C3.16605 6.34675 2.70824 6.66394 2.31137 7.06082C1.45512 7.9155 0.970742 9.04363 0.939492 10.2483C0.939075 10.265 0.942 10.2816 0.948095 10.2971C0.95419 10.3126 0.963331 10.3268 0.97498 10.3387C0.98663 10.3507 1.00055 10.3602 1.01592 10.3666C1.0313 10.3731 1.04781 10.3764 1.06449 10.3764H1.94105C2.00824 10.3764 2.06449 10.3233 2.06605 10.2561C2.09574 9.34988 2.46293 8.50144 3.10824 7.85769C3.56762 7.39832 4.13012 7.07957 4.74418 6.92488C4.80356 6.90769 4.84418 6.84988 4.83637 6.78738ZM11.8754 6.37488C11.8754 4.6655 10.502 3.27644 8.79887 3.24988C7.06762 3.22332 5.62543 4.64363 5.62543 6.37488C5.62543 7.35613 6.07856 8.23113 6.78481 8.80457C6.28278 9.03727 5.82577 9.35676 5.4348 9.74832C4.57855 10.603 4.09418 11.7311 4.06293 12.9343C4.06251 12.9509 4.06544 12.9675 4.07153 12.9831C4.07763 12.9986 4.08677 13.0127 4.09842 13.0247C4.11007 13.0366 4.12399 13.0461 4.13936 13.0526C4.15473 13.0591 4.17125 13.0624 4.18793 13.0624H5.06293C5.13012 13.0624 5.18637 13.0093 5.18793 12.9421C5.21762 12.0358 5.58481 11.1874 6.23012 10.5436C6.90356 9.87019 7.79731 9.49988 8.75043 9.49988C10.4754 9.49988 11.8754 8.10144 11.8754 6.37488ZM10.1645 7.78894C9.78637 8.16707 9.28481 8.37488 8.75043 8.37488C8.21606 8.37488 7.71449 8.16707 7.33637 7.78894C7.14768 7.60124 6.99859 7.37756 6.89794 7.13117C6.79729 6.88479 6.74713 6.6207 6.75043 6.35457C6.75512 5.84207 6.95981 5.34675 7.31762 4.97957C7.69262 4.59519 8.19418 4.38113 8.73012 4.37488C9.25981 4.37019 9.77387 4.57644 10.152 4.94675C10.5395 5.32644 10.752 5.83425 10.752 6.37488C10.7504 6.90925 10.5426 7.41082 10.1645 7.78894Z" fill="black"/>
<path d="M8.79102 3.74951C10.2216 3.77182 11.3748 4.93902 11.375 6.37451C11.375 7.82477 10.199 8.99951 8.75 8.99951C7.73232 8.99962 6.77163 9.37178 6.02344 10.0503L5.87695 10.1899C5.22865 10.8368 4.82623 11.6666 4.7168 12.562H4.59082C4.69232 11.6996 5.05737 10.897 5.64844 10.2485L5.78809 10.1021H5.78906C6.13846 9.75213 6.54648 9.46626 6.99512 9.2583L7.72168 8.92139L7.09961 8.4165C6.50486 7.93352 6.125 7.19808 6.125 6.37451C6.12519 5.01347 7.19194 3.87775 8.52148 3.75928L8.79102 3.74951ZM4.31445 6.37451C4.31445 6.4265 4.31651 6.47848 4.31836 6.52979C3.81989 6.69831 3.35813 6.96406 2.95605 7.31592L2.75488 7.50342C2.10638 8.15035 1.7041 8.9808 1.59473 9.87646H1.4668C1.56816 9.01255 1.93404 8.20971 2.52539 7.56104L2.66504 7.41455C3.02001 7.05958 3.42927 6.77594 3.87305 6.5708L4.31445 6.36572C4.31445 6.36865 4.31445 6.37158 4.31445 6.37451ZM8.72461 3.87451C8.1399 3.88133 7.58545 4.08777 7.14258 4.46045L6.95996 4.63037C6.513 5.08905 6.25634 5.70709 6.25 6.34814C6.2469 6.59803 6.28188 6.84672 6.35254 7.08545L6.43555 7.31982C6.56118 7.62738 6.74714 7.90658 6.98242 8.14111V8.14209C7.45415 8.61382 8.08309 8.8744 8.75 8.87451C9.41706 8.87451 10.0458 8.6139 10.5176 8.14209C10.9304 7.72931 11.1816 7.19724 11.2393 6.62451L11.252 6.37646V6.37451C11.2519 5.7843 11.0478 5.22339 10.6729 4.7749L10.502 4.58936C10.088 4.18399 9.54493 3.93692 8.97266 3.88525L8.72559 3.87451H8.72461ZM5.6709 1.06201C6.49231 1.07489 7.22277 1.46508 7.69629 2.06592C7.65215 2.07675 7.608 2.08701 7.56445 2.09912C7.52798 2.05479 7.48999 2.0114 7.4502 1.96924L7.33887 1.85889V1.85791C6.88316 1.43162 6.28149 1.1919 5.6582 1.18604C5.0559 1.17945 4.48323 1.38542 4.02734 1.76709L3.83984 1.94092C3.40038 2.39017 3.14775 2.98616 3.12988 3.61279C3.12207 3.87263 3.15562 4.13166 3.22754 4.38037L3.3125 4.62451C3.44274 4.94556 3.63798 5.23685 3.88672 5.47803V5.47705C4.02742 5.61485 4.18315 5.73187 4.34863 5.83057C4.34115 5.89138 4.33509 5.95257 4.33008 6.01416L3.97754 5.729C3.38191 5.24646 3.00391 4.51114 3.00391 3.68701C3.0041 2.32619 4.0713 1.19015 5.40137 1.07178L5.6709 1.06201Z" stroke="black" stroke-opacity="0.88"/>
</g>
<defs>
<clipPath id="clip0_262_8446">
<rect width="14" height="14" fill="white"/>
</clipPath>
</defs>
</svg>
