<svg width="12" height="12" viewBox="0 0 12 12" fill="none" xmlns="http://www.w3.org/2000/svg">
<g clip-path="url(#clip0_262_8629)">
<path d="M10.9818 2.57141H9.97729C9.90899 2.57141 9.8447 2.60489 9.80452 2.6598L5.99961 7.90445L2.1947 2.6598C2.15452 2.60489 2.09024 2.57141 2.02193 2.57141H1.01747C0.930415 2.57141 0.879522 2.67052 0.930415 2.7415L5.65274 9.25177C5.82417 9.48748 6.17506 9.48748 6.34515 9.25177L11.0675 2.7415C11.1197 2.67052 11.0688 2.57141 10.9818 2.57141Z" fill="black"/>
<path d="M1.87598 3.07141L5.59473 8.19836L6 8.75598L6.4043 8.19836L10.123 3.07141H10.2109L5.99902 8.87708L1.78711 3.07141H1.87598Z" stroke="black" stroke-opacity="0.25"/>
</g>
<defs>
<clipPath id="clip0_262_8629">
<rect width="12" height="12" fill="white"/>
</clipPath>
</defs>
</svg>
