<svg width="14" height="14" viewBox="0 0 14 14" fill="none" xmlns="http://www.w3.org/2000/svg">
<g clip-path="url(#clip0_262_8415)">
<path d="M7 0C3.13438 0 0 3.13438 0 7C0 10.8656 3.13438 14 7 14C10.8656 14 14 10.8656 14 7C14 3.13438 10.8656 0 7 0ZM7 12.8125C3.79063 12.8125 1.1875 10.2094 1.1875 7C1.1875 3.79063 3.79063 1.1875 7 1.1875C10.2094 1.1875 12.8125 3.79063 12.8125 7C12.8125 10.2094 10.2094 12.8125 7 12.8125Z" fill="black"/>
<path d="M7 0.5C10.5895 0.5 13.5 3.41052 13.5 7C13.5 10.5895 10.5895 13.5 7 13.5C3.41052 13.5 0.5 10.5895 0.5 7C0.500001 3.41052 3.41052 0.500001 7 0.5ZM7 0.6875C3.51448 0.687501 0.687501 3.51448 0.6875 7C0.6875 10.4855 3.51448 13.3125 7 13.3125C10.4855 13.3125 13.3125 10.4855 13.3125 7C13.3125 3.51448 10.4855 0.6875 7 0.6875Z" stroke="black" stroke-opacity="0.88"/>
<mask id="path-3-inside-1_262_8415" fill="white">
<path d="M10.2406 6.79856L5.61407 3.43918C5.57696 3.41198 5.53303 3.39562 5.48717 3.39192C5.44131 3.38822 5.39532 3.39732 5.35434 3.41822C5.31335 3.43912 5.27897 3.47099 5.25503 3.51028C5.23109 3.54957 5.21853 3.59474 5.21875 3.64074V10.3595C5.21875 10.5642 5.45 10.6798 5.61407 10.5611L10.2406 7.20168C10.2726 7.17867 10.2986 7.14839 10.3165 7.11334C10.3345 7.0783 10.3438 7.03949 10.3438 7.00012C10.3438 6.96075 10.3345 6.92194 10.3165 6.8869C10.2986 6.85185 10.2726 6.82157 10.2406 6.79856ZM6.21563 8.89231V5.10793L8.82032 7.00012L6.21563 8.89231Z"/>
</mask>
<path d="M10.2406 6.79856L5.61407 3.43918C5.57696 3.41198 5.53303 3.39562 5.48717 3.39192C5.44131 3.38822 5.39532 3.39732 5.35434 3.41822C5.31335 3.43912 5.27897 3.47099 5.25503 3.51028C5.23109 3.54957 5.21853 3.59474 5.21875 3.64074V10.3595C5.21875 10.5642 5.45 10.6798 5.61407 10.5611L10.2406 7.20168C10.2726 7.17867 10.2986 7.14839 10.3165 7.11334C10.3345 7.0783 10.3438 7.03949 10.3438 7.00012C10.3438 6.96075 10.3345 6.92194 10.3165 6.8869C10.2986 6.85185 10.2726 6.82157 10.2406 6.79856ZM6.21563 8.89231V5.10793L8.82032 7.00012L6.21563 8.89231Z" fill="black"/>
<path d="M10.2406 6.79856L9.65307 7.60775L9.65603 7.60988L10.2406 6.79856ZM5.61407 3.43918L5.02285 4.24571L5.02651 4.24837L5.61407 3.43918ZM5.21875 3.64074H6.21876L6.21874 3.63594L5.21875 3.64074ZM5.61407 10.5611L6.2004 11.3711L6.20162 11.3702L5.61407 10.5611ZM10.2406 7.20168L9.65602 6.39036L9.65307 6.3925L10.2406 7.20168ZM6.21563 8.89231H5.21563V10.8548L6.80337 9.70136L6.21563 8.89231ZM6.21563 5.10793L6.80337 4.29888L5.21563 3.14546V5.10793H6.21563ZM8.82032 7.00012L9.40805 7.80917L10.5218 7.00012L9.40805 6.19107L8.82032 7.00012ZM10.2406 6.79856L10.8282 5.98937L6.20162 2.63L5.61407 3.43918L5.02651 4.24837L9.65307 7.60774L10.2406 6.79856ZM5.61407 3.43918L6.20527 2.63266C6.01881 2.49598 5.79805 2.41375 5.5676 2.39516L5.48717 3.39192L5.40674 4.38868C5.26801 4.37748 5.13511 4.32799 5.02286 4.2457L5.61407 3.43918ZM5.48717 3.39192L5.5676 2.39516C5.33716 2.37656 5.10607 2.42232 4.90009 2.52734L5.35434 3.41822L5.80858 4.3091C5.68458 4.37233 5.54547 4.39987 5.40674 4.38868L5.48717 3.39192ZM5.35434 3.41822L4.90009 2.52734C4.69412 2.63237 4.52136 2.79252 4.40107 2.98995L5.25503 3.51028L6.109 4.03061C6.03658 4.14947 5.93257 4.24588 5.80858 4.3091L5.35434 3.41822ZM5.25503 3.51028L4.40107 2.98995C4.28077 3.18738 4.21765 3.41435 4.21876 3.64554L5.21875 3.64074L6.21874 3.63594C6.21941 3.77512 6.18142 3.91176 6.109 4.03061L5.25503 3.51028ZM5.21875 3.64074H4.21875V10.3595H5.21875H6.21875V3.64074H5.21875ZM5.21875 10.3595H4.21875C4.21875 11.3907 5.38347 11.9624 6.2004 11.3711L5.61407 10.5611L5.02773 9.75099C5.51654 9.39718 6.21875 9.73765 6.21875 10.3595H5.21875ZM5.61407 10.5611L6.20162 11.3702L10.8282 8.01087L10.2406 7.20168L9.65307 6.3925L5.02651 9.75187L5.61407 10.5611ZM10.2406 7.20168L10.8252 8.013C10.9858 7.89734 11.1165 7.74518 11.2066 7.56908L10.3165 7.11334L9.42642 6.6576C9.48069 6.55159 9.55939 6.45999 9.65603 6.39036L10.2406 7.20168ZM10.3165 7.11334L11.2066 7.56908C11.2968 7.39297 11.3438 7.19796 11.3438 7.00012H10.3438H9.34383C9.34383 6.88102 9.37213 6.76362 9.42642 6.6576L10.3165 7.11334ZM10.3438 7.00012H11.3438C11.3438 6.80228 11.2968 6.60726 11.2066 6.43116L10.3165 6.8869L9.42642 7.34264C9.37213 7.23662 9.34383 7.11922 9.34383 7.00012H10.3438ZM10.3165 6.8869L11.2066 6.43116C11.1165 6.25505 10.9857 6.1029 10.8252 5.98724L10.2406 6.79856L9.65603 7.60988C9.55939 7.54025 9.48069 7.44865 9.42642 7.34264L10.3165 6.8869ZM6.21563 8.89231H7.21563V5.10793H6.21563H5.21563V8.89231H6.21563ZM6.21563 5.10793L5.62789 5.91698L8.23258 7.80917L8.82032 7.00012L9.40805 6.19107L6.80337 4.29888L6.21563 5.10793ZM8.82032 7.00012L8.23258 6.19107L5.62789 8.08326L6.21563 8.89231L6.80337 9.70136L9.40805 7.80917L8.82032 7.00012Z" fill="black" fill-opacity="0.88" mask="url(#path-3-inside-1_262_8415)"/>
</g>
<defs>
<clipPath id="clip0_262_8415">
<rect width="14" height="14" fill="white"/>
</clipPath>
</defs>
</svg>
