<svg width="14" height="14" viewBox="0 0 14 14" fill="none" xmlns="http://www.w3.org/2000/svg">
<path d="M12.875 11.375H2.125V1.625C2.125 1.55625 2.06875 1.5 2 1.5H1.125C1.05625 1.5 1 1.55625 1 1.625V12.375C1 12.4438 1.05625 12.5 1.125 12.5H12.875C12.9438 12.5 13 12.4438 13 12.375V11.5C13 11.4313 12.9438 11.375 12.875 11.375ZM3.5 10.125H4.375C4.44375 10.125 4.5 10.0688 4.5 10V7.75C4.5 7.68125 4.44375 7.625 4.375 7.625H3.5C3.43125 7.625 3.375 7.68125 3.375 7.75V10C3.375 10.0688 3.43125 10.125 3.5 10.125ZM5.875 10.125H6.75C6.81875 10.125 6.875 10.0688 6.875 10V5C6.875 4.93125 6.81875 4.875 6.75 4.875H5.875C5.80625 4.875 5.75 4.93125 5.75 5V10C5.75 10.0688 5.80625 10.125 5.875 10.125ZM8.25 10.125H9.125C9.19375 10.125 9.25 10.0688 9.25 10V6.21875C9.25 6.15 9.19375 6.09375 9.125 6.09375H8.25C8.18125 6.09375 8.125 6.15 8.125 6.21875V10C8.125 10.0688 8.18125 10.125 8.25 10.125ZM10.625 10.125H11.5C11.5688 10.125 11.625 10.0688 11.625 10V3.75C11.625 3.68125 11.5688 3.625 11.5 3.625H10.625C10.5563 3.625 10.5 3.68125 10.5 3.75V10C10.5 10.0688 10.5563 10.125 10.625 10.125Z" fill="black"/>
<path d="M1.625 2V11.875H12.5V12H1.5V2H1.625ZM11.125 4.125V9.625H11V4.125H11.125ZM8.75 6.59375V9.625H8.625V6.59375H8.75ZM6.375 5.375V9.625H6.25V5.375H6.375ZM4 8.125V9.625H3.875V8.125H4Z" stroke="black" stroke-opacity="0.88"/>
</svg>
